<?xml version="1.0" standalone="no"?>
<!DOCTYPE svg PUBLIC "-//W3C//DTD SVG 20010904//EN"
 "http://www.w3.org/TR/2001/REC-SVG-20010904/DTD/svg10.dtd">
<svg version="1.0" xmlns="http://www.w3.org/2000/svg"
 width="100.000000pt" height="100.000000pt" viewBox="0 0 100.000000 100.000000"
 preserveAspectRatio="xMidYMid meet">

<g transform="translate(0.000000,100.000000) scale(0.100000,-0.100000)"
fill="#000000" stroke="none">
<path d="M242 755 c-11 -14 -25 -25 -31 -25 -13 0 -72 -39 -83 -55 -13 -17 -9
-43 8 -59 11 -12 35 -16 89 -16 l75 0 2 -162 3 -163 156 -3 c124 -2 160 -6
169 -17 8 -10 29 -14 59 -13 l46 1 -50 6 c-43 5 -50 9 -53 29 -3 17 2 25 17
29 12 3 21 9 21 14 0 5 8 9 19 9 10 0 21 9 24 20 6 23 39 27 56 6 7 -8 20 -12
30 -9 26 7 77 -62 61 -82 -7 -8 -24 -15 -39 -16 -14 0 -20 -3 -13 -6 21 -8 59
5 66 23 4 11 -4 33 -21 56 -21 31 -32 39 -50 35 l-23 -4 -2 161 -3 161 -32 3
c-21 2 -33 9 -33 18 0 11 -18 14 -85 14 -69 0 -85 -3 -85 -15 0 -8 -4 -15 -10
-15 -5 0 -10 7 -10 15 0 9 -9 15 -25 15 -16 0 -25 -6 -25 -15 0 -8 -4 -15 -10
-15 -5 0 -10 7 -10 15 0 8 -6 15 -13 15 -8 0 -22 9 -33 21 -12 14 -26 19 -43
16 -16 -3 -30 1 -39 11 -11 15 -12 14 -2 -5 8 -18 16 -21 38 -17 19 4 32 0 41
-10 12 -14 10 -16 -8 -16 -12 0 -21 -6 -21 -14 0 -9 -12 -16 -32 -18 -29 -3
-33 -7 -36 -35 l-3 -33 -73 0 c-52 0 -77 4 -86 15 -16 19 -9 45 15 59 11 6 25
17 31 25 6 8 20 12 33 8 16 -4 21 -1 21 13 0 20 16 36 45 43 19 4 19 5 -2 6
-12 0 -30 -10 -41 -24z m198 -85 c0 -27 -3 -30 -30 -30 -27 0 -30 3 -30 30 0
27 3 30 30 30 27 0 30 -3 30 -30z m70 0 c0 -20 -5 -30 -15 -30 -10 0 -15 10
-15 30 0 20 5 30 15 30 10 0 15 -10 15 -30z m115 0 c41 0 56 4 64 18 9 14 10
11 11 -15 l0 -33 -75 0 -75 0 0 33 c1 26 2 29 11 15 8 -14 23 -18 64 -18z m55
20 c0 -5 -25 -10 -55 -10 -30 0 -55 5 -55 10 0 6 25 10 55 10 30 0 55 -4 55
-10z m-310 -45 c0 -11 11 -15 40 -15 29 0 40 4 40 15 0 8 5 15 10 15 6 0 10
-7 10 -15 0 -9 9 -15 25 -15 16 0 25 6 25 15 0 8 5 15 10 15 6 0 10 -7 10 -15
0 -12 16 -15 85 -15 69 0 85 3 85 15 0 9 9 15 25 15 l25 0 -2 -142 c-1 -127
-2 -134 -8 -63 l-6 80 -2 -76 c-2 -60 -6 -78 -18 -83 -9 -3 -69 -6 -135 -6
-112 0 -119 -1 -119 -20 0 -19 7 -20 98 -20 66 0 92 -3 82 -10 -8 -5 -31 -10
-50 -11 l-35 -1 30 -8 c18 -5 -30 -8 -122 -9 l-153 -1 0 185 0 185 25 0 c16 0
25 -6 25 -15z m330 -295 c0 -6 -43 -10 -110 -10 -67 0 -110 4 -110 10 0 6 43
10 110 10 67 0 110 -4 110 -10z"/>
<path d="M330 640 c0 -5 5 -10 10 -10 6 0 10 5 10 10 0 6 -4 10 -10 10 -5 0
-10 -4 -10 -10z"/>
<path d="M730 640 c0 -5 5 -10 10 -10 6 0 10 5 10 10 0 6 -4 10 -10 10 -5 0
-10 -4 -10 -10z"/>
<path d="M334 535 c0 -49 1 -71 3 -48 2 23 2 64 0 90 -2 26 -3 8 -3 -42z"/>
<path d="M743 575 c0 -22 2 -30 4 -17 2 12 2 30 0 40 -3 9 -5 -1 -4 -23z"/>
<path d="M360 520 c0 -56 3 -70 15 -70 12 0 15 14 15 70 0 56 -3 70 -15 70
-12 0 -15 -14 -15 -70z m17 -32 c-2 -18 -4 -4 -4 32 0 36 2 50 4 33 2 -18 2
-48 0 -65z"/>
<path d="M410 520 c0 -56 3 -70 15 -70 12 0 15 14 15 70 0 56 -3 70 -15 70
-12 0 -15 -14 -15 -70z m17 -32 c-2 -18 -4 -4 -4 32 0 36 2 50 4 33 2 -18 2
-48 0 -65z"/>
<path d="M470 570 c0 -16 7 -20 30 -20 23 0 30 4 30 20 0 16 -7 20 -30 20 -23
0 -30 -4 -30 -20z"/>
<path d="M580 520 l0 -70 70 0 70 0 0 70 0 70 -70 0 -70 0 0 -70z m130 0 l0
-60 -60 0 -60 0 0 60 0 60 60 0 60 0 0 -60z"/>
<path d="M610 520 l0 -40 40 0 40 0 0 40 0 40 -40 0 -40 0 0 -40z"/>
<path d="M470 520 c0 -16 7 -20 30 -20 23 0 30 4 30 20 0 16 -7 20 -30 20 -23
0 -30 -4 -30 -20z"/>
<path d="M470 470 c0 -16 7 -20 30 -20 23 0 30 4 30 20 0 16 -7 20 -30 20 -23
0 -30 -4 -30 -20z"/>
<path d="M333 385 c0 -27 2 -38 4 -22 2 15 2 37 0 50 -2 12 -4 0 -4 -28z"/>
<path d="M360 405 c-26 -32 13 -81 48 -59 22 14 27 41 12 59 -16 19 -44 19
-60 0z m55 -25 c0 -18 -6 -26 -23 -28 -13 -2 -25 3 -28 12 -10 26 4 48 28 44
17 -2 23 -10 23 -28z"/>
<path d="M470 400 c0 -19 7 -20 125 -20 118 0 125 1 125 20 0 19 -7 20 -125
20 -118 0 -125 -1 -125 -20z m240 0 c0 -6 -45 -10 -115 -10 -70 0 -115 4 -115
10 0 6 45 10 115 10 70 0 115 -4 115 -10z"/>
<path d="M330 310 c0 -5 5 -10 10 -10 6 0 10 5 10 10 0 6 -4 10 -10 10 -5 0
-10 -4 -10 -10z"/>
<path d="M378 303 c12 -2 32 -2 45 0 12 2 2 4 -23 4 -25 0 -35 -2 -22 -4z"/>
<path d="M483 303 c15 -2 39 -2 55 0 15 2 2 4 -28 4 -30 0 -43 -2 -27 -4z"/>
</g>
</svg>
